<?xml version="1.0" standalone="no"?>
<!DOCTYPE svg PUBLIC "-//W3C//DTD SVG 20010904//EN"
 "http://www.w3.org/TR/2001/REC-SVG-20010904/DTD/svg10.dtd">
<svg version="1.0" xmlns="http://www.w3.org/2000/svg"
 width="528.000000pt" height="528.000000pt" viewBox="0 0 528.000000 528.000000"
 preserveAspectRatio="xMidYMid meet">
<metadata>
Created by potrace 1.11, written by Peter Selinger 2001-2013
</metadata>
<g transform="translate(0.000000,528.000000) scale(0.100000,-0.100000)"
fill="#000000" stroke="none">
<path d="M2430 5140 c-41 -11 -90 -34 -90 -42 0 -4 -9 -8 -19 -8 -11 0 -21 -4
-23 -9 -1 -5 -10 -11 -18 -13 -8 -2 -17 -5 -20 -8 -3 -3 -30 -18 -60 -34 -30
-16 -57 -32 -60 -36 -3 -3 -19 -12 -37 -19 -17 -7 -46 -26 -64 -42 -17 -15
-36 -26 -40 -23 -5 3 -6 -1 -4 -9 3 -7 -1 -30 -10 -50 -10 -25 -12 -37 -4 -37
8 0 8 -4 0 -14 -8 -10 -9 -16 -1 -21 6 -3 8 -10 6 -14 -3 -4 -6 -28 -7 -54 -2
-35 -7 -47 -18 -48 -10 0 -11 -3 -4 -5 7 -3 9 -12 6 -20 -3 -7 -9 -11 -14 -8
-5 3 -6 -2 -3 -10 3 -9 -6 -21 -25 -32 -17 -10 -31 -21 -31 -25 0 -4 -20 -13
-45 -20 -25 -7 -45 -16 -45 -20 0 -3 -6 -6 -12 -6 -11 -1 -27 -4 -83 -16 -5
-2 -16 -6 -22 -10 -7 -5 -13 -6 -13 -3 0 3 -17 -2 -37 -10 -47 -20 -91 -69
-99 -111 -3 -18 -10 -30 -15 -28 -4 3 -6 -4 -4 -15 2 -11 -1 -20 -6 -20 -6 0
-7 -4 -4 -10 6 -10 -44 -64 -52 -56 -7 7 -78 -28 -97 -47 -10 -9 -22 -14 -28
-11 -7 4 -8 2 -4 -4 7 -11 -32 -38 -47 -34 -5 1 -5 -2 -2 -8 4 -7 -2 -14 -14
-17 -11 -3 -23 -13 -26 -23 -3 -10 -12 -21 -20 -24 -8 -3 -15 -12 -15 -21 0
-8 -4 -15 -8 -15 -9 0 -9 -1 -15 -70 -3 -25 -5 -48 -6 -52 -2 -11 -73 -41 -91
-40 -11 1 -11 0 -2 -4 10 -5 10 -9 1 -20 -6 -8 -15 -12 -19 -9 -4 3 -8 -1 -7
-8 1 -29 -4 -48 -11 -43 -4 2 -7 -29 -7 -70 0 -43 -4 -74 -10 -74 -5 0 -5 -4
2 -8 6 -4 14 -21 17 -37 7 -35 -13 -125 -28 -125 -5 0 -7 -3 -3 -6 3 -3 -4
-31 -15 -62 -11 -32 -21 -66 -24 -77 -2 -11 -16 -45 -31 -75 -15 -30 -26 -59
-25 -63 1 -4 -4 -10 -12 -13 -8 -3 -12 -12 -9 -20 3 -8 -1 -14 -8 -14 -7 0
-10 -2 -7 -6 3 -3 -4 -26 -17 -52 -14 -28 -21 -58 -18 -75 3 -21 1 -27 -8 -22
-8 6 -10 4 -3 -6 14 -24 16 -51 2 -43 -10 6 -9 3 0 -9 8 -9 12 -26 11 -39 -2
-13 0 -29 5 -37 5 -8 4 -16 -4 -21 -10 -6 -9 -9 1 -13 11 -4 11 -6 1 -6 -7 -1
-10 -6 -6 -13 13 -20 13 -68 0 -61 -7 4 -6 1 1 -7 10 -11 9 -16 -5 -27 -9 -8
-11 -12 -5 -8 14 7 18 -17 6 -29 -5 -4 -8 -11 -9 -14 -9 -52 -18 -72 -32 -67
-12 4 -12 3 -3 -9 8 -10 9 -16 1 -21 -5 -3 -10 -15 -10 -26 0 -10 -5 -19 -11
-19 -6 0 -9 -6 -6 -12 2 -7 -2 -21 -11 -30 -10 -13 -11 -18 -3 -18 7 0 9 -5 4
-12 -13 -22 -14 -57 -2 -79 8 -17 8 -20 -1 -14 -7 4 -5 -4 4 -17 9 -14 13 -28
9 -31 -3 -4 -2 -7 4 -7 6 0 14 -7 17 -16 5 -12 2 -15 -9 -10 -9 3 -13 2 -10
-4 3 -6 12 -10 18 -10 7 0 20 -20 30 -45 11 -31 12 -44 4 -39 -7 4 -2 -3 11
-15 12 -12 20 -26 17 -32 -4 -5 -1 -9 4 -9 6 0 11 -9 11 -19 0 -11 5 -23 10
-26 6 -3 10 -15 10 -26 0 -10 4 -19 8 -19 4 0 15 -20 24 -45 17 -44 11 -64
-14 -49 -7 4 -8 3 -4 -5 4 -6 16 -9 27 -6 15 5 19 1 19 -14 0 -12 5 -21 10
-21 6 0 10 -9 10 -21 0 -11 7 -27 15 -36 8 -8 12 -19 9 -25 -4 -6 -2 -13 4
-17 6 -3 13 -18 16 -31 3 -14 9 -39 15 -57 5 -17 7 -34 3 -37 -3 -3 -1 -6 4
-6 9 0 16 -39 18 -102 1 -14 4 -24 7 -22 13 8 5 -63 -10 -79 -13 -15 -13 -18
-1 -15 12 2 14 -5 12 -32 -2 -19 -9 -41 -15 -49 -9 -12 -9 -13 1 -7 15 9 15 5
0 -31 -6 -15 -12 -39 -13 -51 -1 -13 -8 -28 -16 -33 -9 -6 -10 -9 -2 -9 8 0 5
-17 -10 -52 -11 -29 -24 -55 -27 -58 -3 -3 -6 -11 -8 -18 -4 -22 -44 -105 -64
-134 -11 -16 -16 -28 -12 -28 4 0 0 -8 -8 -17 -9 -10 -17 -22 -19 -28 -11 -28
-72 -114 -78 -110 -4 2 -8 -1 -8 -8 -1 -22 -8 -41 -21 -55 -6 -7 -12 -20 -12
-28 0 -20 -1 -26 -11 -51 -5 -15 -5 -23 2 -23 6 0 6 -7 -1 -20 -6 -11 -7 -20
-2 -20 10 0 8 -34 -3 -61 -3 -10 -1 -20 5 -24 8 -5 8 -11 -1 -21 -8 -10 -8
-14 0 -14 6 0 11 -5 11 -11 0 -5 -4 -8 -8 -5 -5 3 -9 -1 -9 -9 0 -8 4 -12 9
-9 4 3 8 -2 8 -11 0 -10 -5 -13 -12 -9 -8 5 -8 3 -2 -7 13 -20 13 -123 0 -131
-7 -5 -6 -8 4 -8 8 0 23 -18 34 -40 10 -21 25 -41 32 -44 8 -3 12 -11 10 -18
-1 -7 -1 -10 1 -5 7 11 33 9 33 -3 0 -5 3 -9 8 -9 4 1 38 1 76 0 55 -1 67 -4
63 -16 -4 -8 -1 -17 5 -21 6 -4 8 -3 5 2 -9 15 8 35 29 35 141 2 205 -3 200
-16 -3 -8 0 -17 6 -21 6 -4 8 -3 5 2 -8 13 5 32 23 34 8 1 59 2 114 1 82 -1
97 -3 93 -16 -4 -8 -1 -17 5 -21 6 -4 8 -3 5 2 -9 15 8 35 29 35 141 2 205 -3
200 -16 -3 -8 0 -17 6 -21 6 -4 8 -3 5 2 -8 13 5 32 23 34 8 1 59 2 114 1 82
-1 97 -3 93 -16 -4 -8 -2 -17 4 -20 5 -4 9 -3 8 2 -4 21 3 31 21 36 11 3 20 2
20 -2 0 -4 16 -5 36 -3 22 3 34 1 31 -5 -3 -5 0 -10 8 -10 8 0 12 4 9 9 -8 13
71 9 85 -5 9 -8 12 -8 7 0 -4 8 13 11 64 11 38 0 68 -4 65 -8 -2 -3 2 -7 10
-7 8 0 12 4 9 9 -8 13 71 9 85 -5 9 -8 12 -8 7 0 -4 8 13 11 64 11 38 0 68 -4
65 -8 -2 -3 2 -7 10 -7 8 0 12 4 9 9 -8 13 71 9 85 -5 9 -8 12 -8 7 0 -4 8 13
11 64 11 38 0 68 -4 65 -8 -2 -3 2 -7 10 -7 8 0 12 4 9 9 -8 13 71 9 85 -4 9
-9 12 -9 7 -1 -4 8 13 11 64 11 38 0 68 -4 65 -8 -2 -3 2 -7 10 -7 8 0 12 4 9
9 -8 13 71 9 85 -5 9 -8 12 -8 7 0 -4 8 13 11 64 11 38 0 68 -4 65 -8 -2 -3 2
-7 10 -7 8 0 12 4 9 9 -8 13 71 9 85 -5 11 -10 12 -9 6 1 -5 10 0 13 21 10 18
-2 28 -8 26 -16 -1 -8 2 -11 8 -7 6 3 8 11 5 16 -4 5 1 9 10 9 10 0 13 -5 9
-12 -5 -9 -2 -9 9 1 14 11 17 11 18 0 1 -8 1 -18 0 -22 -1 -5 3 -6 8 -2 6 3 8
12 5 20 -7 17 33 17 55 1 11 -8 13 -8 7 1 -4 8 -2 13 8 13 8 0 17 -6 19 -12 4
-10 6 -10 6 0 1 6 6 12 12 12 5 0 7 -6 4 -12 -4 -7 0 -5 8 4 17 22 32 11 14
-11 -11 -14 -10 -14 5 -2 10 7 16 17 13 21 -2 4 16 17 40 29 25 12 45 25 45
27 0 3 -5 2 -11 -1 -6 -4 -5 2 2 13 7 12 17 19 21 16 4 -3 5 2 2 10 -3 9 -2
16 4 16 9 0 7 54 -3 71 -4 5 -1 9 5 9 6 0 9 4 6 9 -10 15 34 93 49 87 8 -3 17
0 21 6 4 7 3 8 -4 4 -7 -4 -12 -3 -12 3 0 5 9 13 20 16 11 4 18 10 16 13 -2 4
16 16 40 27 24 11 44 23 44 27 0 4 7 4 17 1 11 -4 14 -3 9 6 -5 7 -2 20 6 29
32 41 42 89 40 200 0 12 4 22 8 22 5 0 6 9 3 20 -3 11 0 27 7 35 15 18 34 20
24 3 -4 -6 8 0 28 15 19 15 38 24 42 19 4 -4 6 -1 4 7 -2 8 6 19 17 25 11 6
21 20 22 31 3 23 10 68 13 75 1 3 1 15 0 28 -1 15 4 22 17 22 14 0 15 2 4 9
-19 12 4 25 53 28 21 1 45 8 54 15 12 10 14 10 8 1 -4 -7 -2 -13 3 -13 6 0 11
7 11 15 0 8 3 14 8 14 4 -1 10 0 15 1 4 1 10 3 15 5 31 8 61 28 98 63 8 7 20
10 26 6 10 -6 10 -4 0 8 -8 10 -9 19 -3 22 5 3 11 0 14 -6 2 -7 4 1 4 17 0 74
7 114 17 108 8 -5 8 -3 0 8 -6 8 -9 30 -7 49 2 19 5 50 6 68 1 23 6 31 16 27
10 -4 9 1 -4 15 -10 11 -13 20 -7 20 7 0 10 10 8 23 -2 12 1 30 6 40 5 9 5 17
0 17 -5 0 -9 7 -9 15 0 8 3 15 7 15 4 0 6 18 6 40 -2 50 10 84 25 74 8 -4 9
-3 5 5 -4 6 -11 9 -15 7 -4 -3 -9 7 -9 22 -2 32 -6 50 -17 76 -5 11 -3 21 4
26 9 5 8 9 -4 14 -10 3 -15 12 -12 20 3 8 2 16 -3 18 -4 2 -10 21 -12 43 -1
22 -6 42 -10 45 -4 3 -8 17 -10 30 -2 14 -7 31 -12 38 -4 7 -2 20 6 29 8 11 9
14 1 10 -8 -5 -16 6 -23 35 -6 24 -13 50 -15 58 -8 27 -18 94 -19 123 -1 15
-5 27 -10 27 -5 0 -3 7 4 15 7 8 9 15 4 15 -8 0 -13 33 -18 130 -1 19 -5 41
-9 48 -5 7 -3 12 5 12 8 0 9 3 3 8 -15 10 -17 62 -3 81 10 14 10 14 -2 3 -13
-11 -17 -5 -28 45 -7 32 -14 65 -15 73 -1 8 -5 18 -10 21 -4 3 -9 14 -11 25
-2 11 -16 40 -30 66 -14 25 -22 49 -18 53 4 5 2 5 -4 2 -10 -6 -64 47 -64 63
0 3 -14 14 -30 24 -17 9 -28 21 -25 27 4 5 -2 6 -12 2 -10 -3 -15 -2 -11 2 5
5 -2 13 -15 19 -12 7 -22 19 -22 28 0 9 -4 20 -9 25 -5 4 -6 3 -2 -4 10 -17 0
-16 -30 3 -33 23 -122 27 -152 8 -12 -8 -28 -12 -34 -8 -7 4 -8 3 -4 -4 5 -8
0 -12 -13 -12 -11 0 -23 -5 -27 -11 -4 -8 -9 -7 -15 2 -7 11 -9 9 -9 -5 0 -11
-3 -16 -7 -13 -3 4 -12 2 -20 -4 -10 -9 -13 -8 -13 1 0 7 -6 10 -14 7 -21 -8
-25 21 -9 73 16 50 20 76 28 165 3 33 8 78 11 100 4 22 7 57 8 77 0 21 3 38 6
38 3 0 5 19 6 43 0 23 4 74 8 112 4 39 9 84 11 100 1 17 -4 42 -12 58 -7 15
-10 27 -7 27 4 0 -1 9 -10 19 -10 11 -15 25 -11 31 4 7 1 16 -6 21 -11 7 -12
12 -2 28 7 11 9 22 4 25 -12 8 -1 58 18 80 9 11 11 16 4 13 -13 -8 -12 24 2
55 4 9 3 22 -1 29 -4 7 -3 9 3 6 19 -12 -28 97 -48 111 -11 7 -17 17 -14 22 3
5 -3 11 -12 14 -10 3 -26 18 -35 33 -10 16 -22 35 -28 43 -5 8 -19 40 -30 71
-34 94 -82 130 -190 144 -30 4 -61 12 -67 17 -9 7 -13 7 -13 -1 0 -8 -6 -9
-17 -2 -10 5 -22 10 -28 11 -16 4 -59 24 -65 30 -3 3 -18 11 -33 18 -17 7 -25
17 -21 24 4 6 3 8 -3 5 -9 -6 -84 47 -139 98 -6 6 -26 21 -44 35 -18 14 -44
35 -57 48 -13 13 -23 20 -23 16 0 -3 -10 0 -22 8 -24 16 -63 25 -134 32 -64 7
-118 24 -141 45 -11 11 -24 17 -27 14 -3 -4 -6 1 -6 11 0 9 -5 14 -10 11 -6
-3 -13 0 -16 9 -12 32 -103 60 -154 46z"/>
<path d="M3753 3155 c0 -8 4 -12 9 -9 4 3 8 9 8 15 0 5 -4 9 -8 9 -5 0 -9 -7
-9 -15z"/>
<path d="M775 2220 c-3 -5 -1 -10 4 -10 6 0 11 5 11 10 0 6 -2 10 -4 10 -3 0
-8 -4 -11 -10z"/>
<path d="M995 1660 c-3 -5 -1 -10 4 -10 6 0 11 5 11 10 0 6 -2 10 -4 10 -3 0
-8 -4 -11 -10z"/>
<path d="M4533 1389 c-2 -23 3 -25 10 -4 4 8 3 16 -1 19 -4 3 -9 -4 -9 -15z"/>
<path d="M4430 1138 c0 -4 4 -8 9 -8 6 0 12 4 15 8 3 5 -1 9 -9 9 -8 0 -15 -4
-15 -9z"/>
<path d="M4405 1100 c-3 -6 1 -7 9 -4 18 7 21 14 7 14 -6 0 -13 -4 -16 -10z"/>
<path d="M4227 1066 c-4 -10 1 -12 14 -9 23 6 24 9 5 16 -8 3 -17 0 -19 -7z"/>
<path d="M4113 835 c0 -8 4 -12 9 -9 4 3 8 9 8 15 0 5 -4 9 -8 9 -5 0 -9 -7
-9 -15z"/>
<path d="M3935 460 c3 -5 8 -10 11 -10 2 0 4 5 4 10 0 6 -5 10 -11 10 -5 0 -7
-4 -4 -10z"/>
<path d="M3873 445 c0 -8 4 -12 9 -9 5 3 6 10 3 15 -9 13 -12 11 -12 -6z"/>
<path d="M3784 358 l-19 -23 23 19 c12 11 22 21 22 23 0 8 -8 2 -26 -19z"/>
<path d="M710 360 c0 -5 5 -10 10 -10 6 0 10 5 10 10 0 6 -4 10 -10 10 -5 0
-10 -4 -10 -10z"/>
<path d="M706 298 c3 -5 10 -6 15 -3 13 9 11 12 -6 12 -8 0 -12 -4 -9 -9z"/>
<path d="M3770 299 c0 -5 5 -7 10 -4 6 3 10 8 10 11 0 2 -4 4 -10 4 -5 0 -10
-5 -10 -11z"/>
<path d="M710 241 c0 -6 4 -13 10 -16 6 -3 7 1 4 9 -7 18 -14 21 -14 7z"/>
<path d="M755 191 c-3 -5 -2 -12 3 -15 5 -3 9 1 9 9 0 17 -3 19 -12 6z"/>
<path d="M875 111 c-3 -5 -2 -12 3 -15 5 -3 9 1 9 9 0 17 -3 19 -12 6z"/>
<path d="M1400 100 c-9 -6 -10 -10 -3 -10 6 0 15 5 18 10 8 12 4 12 -15 0z"/>
<path d="M1880 100 c-9 -6 -10 -10 -3 -10 6 0 15 5 18 10 8 12 4 12 -15 0z"/>
<path d="M1994 88 l-19 -23 23 19 c12 11 22 21 22 23 0 8 -8 2 -26 -19z"/>
<path d="M2120 100 c-9 -6 -10 -10 -3 -10 6 0 15 5 18 10 8 12 4 12 -15 0z"/>
<path d="M2387 99 c7 -7 15 -10 18 -7 3 3 -2 9 -12 12 -14 6 -15 5 -6 -5z"/>
<path d="M2867 99 c7 -7 15 -10 18 -7 3 3 -2 9 -12 12 -14 6 -15 5 -6 -5z"/>
<path d="M3347 99 c7 -7 15 -10 18 -7 3 3 -2 9 -12 12 -14 6 -15 5 -6 -5z"/>
<path d="M1310 80 c0 -5 5 -10 11 -10 5 0 7 5 4 10 -3 6 -8 10 -11 10 -2 0 -4
-4 -4 -10z"/>
<path d="M1790 80 c0 -5 5 -10 11 -10 5 0 7 5 4 10 -3 6 -8 10 -11 10 -2 0 -4
-4 -4 -10z"/>
<path d="M2193 75 c0 -8 4 -12 9 -9 5 3 6 10 3 15 -9 13 -12 11 -12 -6z"/>
<path d="M2266 82 c-3 -5 1 -9 9 -9 8 0 12 4 9 9 -3 4 -7 8 -9 8 -2 0 -6 -4
-9 -8z"/>
<path d="M2670 81 c0 -6 4 -13 10 -16 6 -3 7 1 4 9 -7 18 -14 21 -14 7z"/>
<path d="M2746 82 c-3 -5 1 -9 9 -9 8 0 12 4 9 9 -3 4 -7 8 -9 8 -2 0 -6 -4
-9 -8z"/>
<path d="M3150 81 c0 -6 4 -13 10 -16 6 -3 7 1 4 9 -7 18 -14 21 -14 7z"/>
<path d="M3226 82 c-3 -5 1 -9 9 -9 8 0 12 4 9 9 -3 4 -7 8 -9 8 -2 0 -6 -4
-9 -8z"/>
<path d="M3393 75 c0 -8 4 -12 9 -9 5 3 6 10 3 15 -9 13 -12 11 -12 -6z"/>
</g>
</svg>
